<?xml version="1.0" standalone="no"?>
<!DOCTYPE svg PUBLIC "-//W3C//DTD SVG 20010904//EN"
 "http://www.w3.org/TR/2001/REC-SVG-20010904/DTD/svg10.dtd">
<svg version="1.0" xmlns="http://www.w3.org/2000/svg"
 width="685.000000pt" height="501.000000pt" viewBox="0 0 685.000000 501.000000"
 preserveAspectRatio="xMidYMid meet">

<g transform="translate(0.000000,501.000000) scale(0.100000,-0.100000)"
fill="#000000" stroke="none">
<path d="M0 2505 l0 -2505 3420 0 3420 0 0 2505 0 2505 -3420 0 -3420 0 0
-2505z m3617 1354 c282 -39 561 -177 760 -377 285 -287 425 -639 410 -1032 -8
-216 -48 -373 -143 -566 -180 -364 -519 -629 -928 -726 -123 -29 -447 -32
-571 -6 -94 21 -189 48 -183 53 2 2 35 -5 73 -16 307 -86 666 -58 944 72 161
75 280 160 409 291 129 131 220 270 289 444 155 385 122 834 -86 1189 -184
313 -517 562 -856 639 -162 37 -380 48 -506 27 -96 -16 -132 -20 -125 -14 26
27 372 42 513 22z m-530 -35 c-3 -3 -12 -4 -19 -1 -8 3 -5 6 6 6 11 1 17 -2
13 -5z m593 -19 c183 -40 402 -138 536 -241 192 -147 365 -375 439 -579 63
-174 88 -313 88 -485 0 -638 -433 -1168 -1068 -1306 -38 -8 -132 -18 -207 -21
-144 -6 -220 2 -375 38 -80 19 -238 80 -258 100 -5 5 -15 9 -23 9 -7 0 -33 14
-57 30 -24 17 -47 30 -50 30 -10 0 -119 85 -135 106 -16 19 58 -31 75 -52 20
-23 210 -123 290 -153 127 -48 221 -69 363 -82 404 -38 810 119 1078 416 92
102 141 174 202 297 90 183 130 335 139 527 24 496 -241 971 -671 1205 -95 53
-241 110 -332 131 -230 53 -512 39 -729 -37 -134 -46 -360 -170 -387 -212 -4
-6 -10 -7 -14 -3 -4 4 -5 8 -3 10 2 2 22 16 44 32 165 123 372 211 590 251 94
17 366 11 465 -11z m-633 9 c-3 -3 -12 -4 -19 -1 -8 3 -5 6 6 6 11 1 17 -2 13
-5z m-46 -11 c-105 -42 -134 -52 -126 -44 13 12 106 49 125 49 12 0 12 -1 1
-5z m-151 -63 c-8 -5 -19 -10 -25 -10 -5 0 -3 5 5 10 8 5 20 10 25 10 6 0 3
-5 -5 -10z m440 -119 c-29 -5 -35 -10 -35 -31 0 -21 7 -27 41 -38 74 -23 62
-93 -15 -91 -20 1 -27 3 -16 6 11 2 30 6 43 9 40 8 29 46 -20 69 -69 32 -64
86 7 84 29 -2 29 -2 -5 -8z m374 -7 c9 -3 16 -10 16 -15 0 -5 -11 -4 -24 3
-60 27 -76 -24 -21 -66 36 -28 44 -53 23 -74 -14 -14 -67 -16 -88 -2 -11 6 -2
9 30 7 39 -2 45 1 48 18 2 13 -9 31 -28 48 -57 51 -26 108 44 81z m-591 -36
c-19 -6 -33 -18 -33 -26 0 -20 19 -80 36 -114 7 -16 9 -28 4 -28 -8 0 -24 39
-49 119 -6 19 -10 36 -8 37 7 7 53 23 67 22 8 0 0 -5 -17 -10z m766 -55 c5
-21 14 -58 19 -83 9 -43 10 -44 19 -20 36 87 44 103 49 98 3 -3 -9 -40 -27
-82 -18 -42 -36 -73 -40 -68 -3 4 -12 40 -18 79 -7 40 -17 75 -21 78 -5 3 -19
-22 -32 -55 -12 -33 -27 -60 -31 -60 -5 0 -7 4 -5 8 35 86 63 142 69 142 5 0
13 -17 18 -37z m-1341 -81 c-39 -40 -73 -71 -75 -69 -1 2 30 36 69 75 40 39
73 70 75 68 2 -1 -29 -35 -69 -74z m612 68 c-8 -5 -22 -9 -30 -9 -10 0 -8 3 5
9 27 12 43 12 25 0z m-256 -75 l17 -30 -20 24 c-12 13 -21 28 -21 34 0 12 0
11 24 -28z m281 -5 c-27 -12 -43 -12 -25 0 8 5 22 9 30 9 10 0 8 -3 -5 -9z
m965 -47 c-1 -16 -7 -46 -15 -68 -8 -22 -15 -48 -15 -57 0 -9 -5 -20 -12 -24
-8 -5 -9 2 -5 23 5 25 1 34 -23 52 -33 24 -51 26 -68 9 -6 -6 -14 -9 -17 -6
-7 7 126 94 148 97 4 1 7 -11 7 -26z m-1177 -37 c8 5 8 3 0 -6 -11 -12 -15
-11 -28 6 -8 10 -15 23 -15 29 0 5 7 -1 16 -13 8 -12 21 -19 27 -16z m-523
-10 c0 -2 -8 -10 -17 -17 -16 -13 -17 -12 -4 4 13 16 21 21 21 13z m1167 -40
c207 -44 402 -169 512 -330 264 -385 159 -906 -233 -1151 -84 -52 -200 -97
-300 -115 -89 -17 -247 -7 -344 20 -65 18 -209 82 -222 99 -3 3 -23 20 -45 36
-56 42 -115 100 -115 114 0 7 -4 9 -10 6 -6 -4 -7 1 -3 11 4 11 3 15 -5 10
-11 -6 -62 52 -62 72 0 6 -4 12 -9 14 -14 5 -59 101 -66 141 -4 20 -12 37 -17
37 -5 0 -8 8 -6 18 1 9 -1 22 -5 29 -4 7 -13 48 -19 92 -21 145 11 336 78 460
14 25 35 64 47 86 38 71 186 208 279 259 177 96 370 128 545 92z m-842 -32 c9
-15 12 -23 6 -20 -11 7 -35 46 -28 46 3 0 12 -12 22 -26z m1570 -39 c26 -25
32 -45 16 -45 -5 0 -13 9 -16 20 -14 45 -81 46 -115 2 -26 -32 -25 -60 2 -89
12 -13 19 -25 16 -29 -10 -9 -48 38 -49 60 -2 40 2 51 32 79 38 35 81 36 114
2z m-1671 -144 c-3 -3 -15 6 -27 18 l-22 24 27 -19 c14 -10 24 -21 22 -23z
m1776 -10 c0 -5 -13 -14 -30 -21 -16 -7 -30 -16 -30 -20 0 -5 23 -14 50 -21
28 -7 50 -16 50 -21 0 -10 -7 -10 -28 1 -9 4 -29 11 -43 14 -25 6 -27 3 -39
-41 -7 -26 -17 -51 -21 -56 -14 -15 -11 5 7 58 9 26 14 50 10 53 -3 3 -20 -1
-38 -10 -18 -9 -35 -13 -38 -10 -3 3 0 7 5 9 6 3 37 20 70 38 64 37 75 41 75
27z m110 -211 c0 -5 -4 -10 -9 -10 -5 0 -18 -3 -28 -6 -16 -6 -16 -5 2 9 23
19 35 21 35 7z m-2107 -127 c-7 -2 -19 -2 -25 0 -7 3 -2 5 12 5 14 0 19 -2 13
-5z m2137 -48 c6 -19 8 -40 3 -47 -5 -9 -10 -1 -13 22 -4 29 -9 35 -30 35 -19
0 -26 -7 -34 -33 -11 -38 -45 -66 -70 -56 -19 7 -35 60 -27 89 4 15 7 11 9
-15 7 -75 45 -80 74 -10 18 43 25 50 49 50 23 0 29 -6 39 -35z m-2095 -45 c-3
-5 -12 -10 -18 -10 -7 0 -6 4 3 10 19 12 23 12 15 0z m-48 -6 c-3 -3 -12 -4
-19 -1 -8 3 -5 6 6 6 11 1 17 -2 13 -5z m2006 -284 c-5 -35 -3 -40 14 -40 11
0 33 16 50 35 32 36 60 44 81 23 14 -14 16 -67 2 -88 -14 -22 -22 -6 -11 24 6
14 8 33 5 41 -10 24 -49 18 -64 -11 -18 -32 -45 -47 -70 -39 -25 8 -35 46 -20
74 16 30 19 26 13 -19z m-1946 -146 c-3 -3 -12 -4 -19 -1 -8 3 -5 6 6 6 11 1
17 -2 13 -5z m1913 -14 c12 -8 11 -10 -7 -10 -12 0 -25 5 -28 10 -8 13 15 13
35 0z m-24 -198 c1 -2 23 4 48 12 53 18 66 20 66 7 0 -5 -17 -11 -38 -14 -21
-4 -46 -13 -57 -21 -18 -13 -17 -14 13 -30 18 -9 32 -21 32 -27 0 -9 -121 52
-144 73 -18 15 14 8 41 -9 l26 -18 -6 33 c-17 80 -17 96 -1 47 10 -27 19 -51
20 -53z m-1919 62 c-3 -3 -12 -4 -19 -1 -8 3 -5 6 6 6 11 1 17 -2 13 -5z m168
-164 c-3 -5 -12 -10 -18 -10 -7 0 -6 4 3 10 19 12 23 12 15 0z m1600 -15 c-39
-38 -29 -82 26 -110 36 -19 61 -13 89 22 11 14 20 21 20 16 0 -6 -9 -22 -21
-37 -62 -79 -191 29 -133 112 8 12 21 22 29 22 9 0 6 -9 -10 -25z m-1445 -108
c0 -2 -10 -12 -22 -23 l-23 -19 19 23 c18 21 26 27 26 19z m51 -44 c13 -16 12
-17 -3 -4 -17 13 -22 21 -14 21 2 0 10 -8 17 -17z m1298 -54 c41 -23 69 -45
62 -47 -6 -2 -18 2 -26 8 -12 10 -22 8 -50 -11 -31 -21 -34 -28 -29 -54 12
-61 -13 -9 -34 67 -18 70 -19 93 -3 84 3 -2 39 -23 80 -47z m-1623 -89 c38
-41 54 -61 35 -45 -38 33 -74 72 -116 125 -34 42 -12 20 81 -80z m393 10 c-18
-33 -34 -58 -36 -56 -5 4 56 116 64 116 2 0 -10 -27 -28 -60z m1040 -42 c17
-39 29 -73 27 -75 -4 -4 -27 7 -101 52 -22 14 -43 25 -47 25 -4 0 4 -25 18
-56 14 -31 23 -61 21 -67 -3 -10 -67 125 -67 143 0 11 67 -20 113 -52 36 -25
43 -18 23 21 -25 48 -36 81 -27 81 4 0 22 -32 40 -72z m-788 6 c31 -14 16 -13
-32 2 -10 4 -20 -4 -27 -22 -15 -31 -17 -28 28 -48 19 -9 27 -14 17 -11 -66
18 -67 18 -67 -8 0 -14 -4 -29 -10 -32 -13 -8 -13 -7 10 69 22 71 28 75 81 50z
m507 -26 c-31 -8 -38 -15 -38 -34 0 -20 7 -26 45 -35 36 -9 47 -17 52 -37 4
-19 1 -30 -17 -44 -24 -19 -80 -25 -80 -7 0 5 5 7 10 4 17 -10 68 5 74 22 9
22 -8 38 -53 52 -25 7 -42 19 -46 32 -10 29 21 59 59 58 31 -1 31 -1 -6 -11z
m-294 -17 c4 -5 -11 -7 -34 -4 -38 5 -40 4 -40 -20 0 -18 10 -31 35 -47 36
-23 46 -55 23 -78 -15 -15 -58 -15 -78 -1 -11 8 -8 9 13 4 70 -15 89 26 32 69
-33 25 -46 62 -28 79 10 10 71 8 77 -2z m-549 -229 c-3 -3 -11 0 -18 7 -9 10
-8 11 6 5 10 -3 15 -9 12 -12z m105 -42 c8 -5 11 -10 5 -10 -5 0 -17 5 -25 10
-8 5 -10 10 -5 10 6 0 17 -5 25 -10z m50 -20 c8 -5 11 -10 5 -10 -5 0 -17 5
-25 10 -8 5 -10 10 -5 10 6 0 17 -5 25 -10z"/>
<path d="M4055 3374 c-11 -8 -27 -19 -35 -24 -12 -7 -10 -12 10 -29 33 -27 36
-26 43 7 3 15 9 35 12 45 9 21 -3 21 -30 1z"/>
<path d="M3306 3270 c-214 -34 -394 -142 -521 -313 -26 -34 -53 -70 -61 -80
-9 -11 -13 -21 -10 -24 3 -3 -6 -27 -20 -54 -14 -27 -32 -81 -39 -121 -7 -40
-14 -67 -14 -59 -1 8 -2 12 -4 10 -2 -2 -1 -67 3 -144 5 -102 13 -162 30 -220
13 -44 26 -82 29 -85 4 -3 13 -18 21 -35 117 -237 350 -391 637 -420 38 -4
104 -2 150 5 321 44 565 255 655 567 18 63 23 102 22 203 0 150 -16 218 -78
345 -127 256 -364 412 -652 428 -49 3 -115 2 -148 -3z m309 -81 c247 -76 434
-267 495 -505 27 -104 27 -263 1 -366 -89 -346 -437 -580 -786 -530 -198 29
-370 133 -497 303 -35 47 -85 156 -89 194 0 6 -5 15 -9 21 -5 5 -14 44 -21 85
-13 87 -6 221 16 296 18 59 72 185 84 193 4 3 22 26 39 51 44 66 145 154 227
199 61 33 158 67 245 84 56 11 226 -3 295 -25z"/>
<path d="M3283 3123 l-23 -4 0 -555 c0 -437 -3 -554 -12 -554 -7 0 -32 9 -55
20 l-43 19 0 516 c0 283 -3 515 -7 515 -11 0 -98 -53 -105 -64 -4 -6 -8 -204
-8 -440 0 -477 3 -461 -64 -347 -96 164 -102 345 -17 506 14 28 27 53 29 57 4
9 -80 58 -100 58 -17 0 -68 -105 -94 -195 -23 -82 -20 -276 6 -340 52 -129 94
-196 167 -269 95 -94 235 -159 370 -173 l53 -6 0 632 0 631 -37 -1 c-21 -1
-48 -4 -60 -6z"/>
<path d="M3450 2867 l0 -263 53 -30 c28 -17 133 -77 232 -134 99 -57 182 -105
184 -106 7 -6 -52 -109 -89 -156 -20 -26 -51 -58 -68 -73 -36 -30 -157 -95
-177 -95 -12 0 -15 31 -17 163 l-3 162 -57 3 -58 3 0 -236 0 -235 28 0 c55 0
183 39 253 77 99 53 204 160 253 258 44 87 70 175 56 189 -5 5 -111 68 -237
141 l-228 132 -3 161 c-2 119 1 162 9 162 7 0 44 -16 84 -35 90 -43 184 -139
227 -232 l30 -63 58 0 c55 0 58 1 53 23 -3 12 -20 54 -39 92 -60 127 -172 237
-299 295 -65 30 -175 60 -218 60 l-27 0 0 -263z"/>
<path d="M4024 1683 c3 -10 8 -30 12 -45 7 -33 9 -33 40 -9 22 17 22 19 6 32
-9 8 -28 20 -40 27 -21 12 -23 11 -18 -5z"/>
</g>
</svg>
